<svg xmlns="http://www.w3.org/2000/svg" width="45" height="45" viewBox="0 0 45 45">
  <path d="M28.2062 11.2991L28.2005 11.2934L28.1946 11.2879C27.2508 10.4031 25.7583 10.3872 24.8464 11.2991L15.3308 20.8148C14.3619 21.7295 14.3808 23.2353 15.3254 24.1799L24.7937 33.6482C25.7085 34.617 27.2142 34.5981 28.1588 33.6536C28.6285 33.1838 28.8737 32.5841 28.8737 31.9737C28.8737 31.3632 28.6285 30.7635 28.1588 30.2938L20.365 22.5L28.2008 14.6642C29.1697 13.7494 29.1508 12.2437 28.2062 11.2991ZM22.5 44.5C10.3656 44.5 0.5 34.6344 0.5 22.5C0.5 10.3656 10.3656 0.5 22.5 0.5C34.6344 0.5 44.5 10.3656 44.5 22.5C44.5 34.6344 34.6344 44.5 22.5 44.5Z" fill="currentColor" stroke="currentColor"/>
</svg>