<svg xmlns="http://www.w3.org/2000/svg" width="45" height="45" viewBox="0 0 45 45">
  <path d="M16.7938 11.2991L16.7995 11.2934L16.8054 11.2879C17.7492 10.4031 19.2417 10.3872 20.1536 11.2991L29.6692 20.8148C30.6381 21.7295 30.6192 23.2353 29.6746 24.1799L20.2063 33.6482C19.2915 34.617 17.7858 34.5981 16.8412 33.6536C16.3715 33.1838 16.1263 32.5841 16.1263 31.9737C16.1263 31.3632 16.3715 30.7635 16.8412 30.2938L24.635 22.5L16.7992 14.6642C15.8303 13.7494 15.8492 12.2437 16.7938 11.2991ZM22.5 44.5C34.6344 44.5 44.5 34.6344 44.5 22.5C44.5 10.3656 34.6344 0.5 22.5 0.5C10.3656 0.5 0.5 10.3656 0.5 22.5C0.5 34.6344 10.3656 44.5 22.5 44.5Z" fill="currentColor" stroke="currentColor"/>
</svg>