<svg viewBox="0 0 13 18" xmlns="http://www.w3.org/2000/svg">
<g id="Hamburger Menu/Location">
<path id="Vector" d="M6.50001 5.40137C5.59303 5.40137 4.86047 6.16094 4.86047 7.10137C4.86047 8.04179 5.59303 8.80137 6.50001 8.80137C7.40699 8.80137 8.13954 8.04179 8.13954 7.10137C8.13954 6.16094 7.40699 5.40137 6.50001 5.40137Z" fill="currentColor"/>
<path id="Vector_2" d="M6.5 0.699219C3.18605 0.699219 0.5 3.91837 0.5 7.82475C0.5 11.6226 5.80233 17.229 6.01163 17.4822C6.15116 17.6269 6.32558 17.6992 6.5 17.6992C6.67442 17.6992 6.84884 17.6269 6.98837 17.4822C7.19767 17.229 12.5 11.6226 12.5 7.82475C12.5 3.91837 9.81395 0.699219 6.5 0.699219ZM6.5 10.212C4.82558 10.212 3.5 8.80135 3.5 7.10135C3.5 5.40135 4.86047 3.99071 6.5 3.99071C8.13953 3.99071 9.5 5.40135 9.5 7.10135C9.5 8.80135 8.17442 10.212 6.5 10.212Z" fill="currentColor"/>
</g>
</svg>
