<svg xmlns="http://www.w3.org/2000/svg" width="32" height="32" viewBox="0 0 32 32" fill="none">
  <g clip-path="url(#clip0_108_35)">
    <path d="M32.001 16.334C32.001 7.4975 24.8375 0.333984 16.001 0.333984C7.1645 0.333984 0.000976562 7.4975 0.000976562 16.334C0.000976562 23.8373 5.16706 30.1337 12.136 31.8629V21.2236H8.83682V16.334H12.136V14.2271C12.136 8.78135 14.6007 6.25718 19.9472 6.25718C20.961 6.25718 22.7101 6.45622 23.4256 6.65462V11.0866C23.048 11.0469 22.392 11.0271 21.5773 11.0271C18.9539 11.0271 17.9402 12.021 17.9402 14.6047V16.334H23.1664L22.2685 21.2236H17.9402V32.2169C25.8615 31.2601 32.001 24.5145 32.001 16.334Z" fill="currentColor"/>
  </g>
  <defs>
    <clipPath id="clip0_108_35">
      <rect width="32" height="32" fill="currentColor" transform="translate(0.000976562)"/>
    </clipPath>
  </defs>
</svg>