<svg width="125" height="27" viewBox="0 0 125 27" fill="none" xmlns="http://www.w3.org/2000/svg">
<path fill-rule="evenodd" clip-rule="evenodd" d="M50.0435 0V20.9805H45.3401V18.6111C44.2055 20.3368 42.4382 21.3188 40.1366 21.3188C35.9012 21.3188 32.5314 17.4275 32.5314 12.656C32.5314 7.88454 35.9012 4.02778 40.1366 4.02778C42.4382 4.02778 44.2055 5.00974 45.3401 6.73538V0H50.0435ZM45.3401 12.656C45.3401 10.3558 43.5387 8.56095 41.2373 8.56095C38.9698 8.56095 37.1343 10.3884 37.1343 12.656C37.1343 14.9562 38.9698 16.7511 41.2373 16.7511C43.5387 16.7511 45.3401 14.9908 45.3401 12.656ZM31.3664 12.6906C31.3664 17.6312 27.6632 21.3188 22.8614 21.3188C18.0254 21.3188 14.3564 17.6312 14.3564 12.6906C14.3564 7.75003 18.0254 4.02778 22.8614 4.02778C27.6632 4.02778 31.3664 7.75003 31.3664 12.6906ZM18.9574 12.6906C18.9574 14.9908 20.6244 16.7511 22.8595 16.7511C25.0606 16.7511 26.7617 14.9908 26.7617 12.6906C26.7617 10.3212 25.0606 8.59555 22.8595 8.59555C20.6262 8.59555 18.9574 10.3212 18.9574 12.6906ZM68.8533 20.9805V4.366H64.1498V6.7354C63.0152 5.00975 61.2479 4.02778 58.9464 4.02778C54.711 4.02778 51.341 7.88454 51.341 12.656C51.341 17.4275 54.711 21.3188 58.9464 21.3188C61.2479 21.3188 63.0152 20.3368 64.1498 18.6111V20.9805H68.8533ZM60.047 8.56096C62.3485 8.56096 64.1498 10.3558 64.1498 12.656C64.1498 14.9908 62.3485 16.7511 60.047 16.7511C57.7796 16.7511 55.9441 14.9562 55.9441 12.656C55.9441 10.3884 57.7796 8.56096 60.047 8.56096ZM82.5221 4.36598L78.887 14.078L75.2501 4.36598H70.1812L76.4852 19.6277L73.4486 26.4957H78.4854L87.5929 4.36598H82.5221ZM106.122 20.9805V4.36598H101.419V20.9805H106.122ZM118.562 12.385L124.5 20.9805H118.829L115.726 16.4801L112.623 20.9805H107.02L112.924 12.4196L107.388 4.36598H113.059L115.76 8.29191L118.562 12.385ZM99.9679 4.36407V8.89915H95.9293V14.1453C95.9293 15.9382 97.1303 16.7164 98.765 16.7164C99.1646 16.7164 99.5984 16.6838 99.9659 16.5819V20.9825C99.3333 21.1516 98.3653 21.2535 97.6986 21.2535C93.8306 21.2535 91.2279 18.6804 91.2279 14.2144V8.90108H87.3315L89.1973 4.36598H91.2279V0.04227H95.9312V4.36407H99.9679ZM13.1364 8.91262V4.37753H9.09979V0.0538082H4.39643V4.37753H2.36582L0.5 8.91262H4.39643V14.226C4.39643 18.6919 6.9991 21.265 10.8671 21.265C11.5339 21.265 12.5018 21.1631 13.1345 20.9941V16.5954C12.767 16.6973 12.3333 16.7299 11.9336 16.7299C10.2989 16.7299 9.09791 15.9516 9.09791 14.1587V8.91262H13.1364ZM119.882 9.23161C121.448 9.23161 122.75 7.91335 122.75 6.32223C122.75 4.76569 121.448 3.44552 119.882 3.44552C118.315 3.44552 117.014 4.76569 117.014 6.32223C117.014 7.91144 118.313 9.23161 119.882 9.23161Z" fill="currentColor"/>
</svg>
